<?xml version="1.0" encoding="utf-8"?>
<!-- Generator: Adobe Illustrator 26.0.1, SVG Export Plug-In . SVG Version: 6.00 Build 0)  -->
<svg version="1.1" id="Vrstva_1" xmlns="http://www.w3.org/2000/svg" xmlns:xlink="http://www.w3.org/1999/xlink" x="0px" y="0px"
	 viewBox="0 0 2551.24 1700.13" style="enable-background:new 0 0 2551.24 1700.13;" xml:space="preserve">
<style type="text/css">
	.st0{fill:#BBADA0;}
</style>
<g>
	<path class="st0" d="M659.03,904.19H136.9C61.29,904.19,0,965.49,0,1041.09v522.13c0,75.62,61.29,136.91,136.9,136.91h522.14
		c75.61,0,136.9-61.29,136.9-136.91v-522.13C795.93,965.49,734.64,904.19,659.03,904.19z M561.93,1343.72H334.35l92.65,92.65
		c16.23,16.23,16.23,42.55,0,58.78c-16.24,16.23-42.55,16.23-58.78,0l-163.48-163.48c-7.6-7.53-12.3-17.98-12.3-29.52
		c0-8.49,2.55-16.39,6.92-22.96c0.02-0.03,0.05-0.07,0.07-0.1c0.31-0.47,0.63-0.93,0.97-1.38c0.07-0.1,0.15-0.21,0.22-0.31
		c0.29-0.38,0.59-0.76,0.88-1.13c0.14-0.16,0.25-0.32,0.38-0.49c0.26-0.31,0.53-0.61,0.79-0.91c0.19-0.21,0.36-0.43,0.55-0.63
		c0.22-0.24,0.45-0.47,0.68-0.71c0.24-0.25,0.47-0.51,0.72-0.75l163.6-163.6c16.23-16.24,42.54-16.24,58.78,0
		c8.12,8.12,12.17,18.75,12.17,29.39s-4.05,21.27-12.17,29.39l-92.66,92.65h227.58c22.95,0,41.57,18.61,41.57,41.57
		C603.49,1325.12,584.88,1343.72,561.93,1343.72z"/>
	<path class="st0" d="M1536.68,904.19h-522.13c-75.61,0-136.91,61.3-136.91,136.91v522.13c0,75.62,61.3,136.91,136.91,136.91h522.13
		c75.62,0,136.91-61.29,136.91-136.91v-522.13C1673.59,965.49,1612.3,904.19,1536.68,904.19z M1468.62,1331.91l-163.48,163.48
		c-7.53,7.6-17.98,12.3-29.52,12.3c-8.49,0-16.39-2.56-22.97-6.93c-0.03-0.02-0.07-0.04-0.11-0.06c-0.46-0.31-0.91-0.64-1.37-0.97
		c-0.1-0.08-0.21-0.15-0.31-0.23c-0.38-0.28-0.76-0.58-1.13-0.88c-0.17-0.12-0.32-0.25-0.49-0.38c-0.31-0.25-0.61-0.52-0.91-0.79
		c-0.21-0.18-0.43-0.35-0.63-0.54c-0.24-0.22-0.47-0.46-0.71-0.68c-0.25-0.24-0.51-0.47-0.75-0.72l-163.6-163.6
		c-16.24-16.23-16.24-42.55,0-58.78c8.12-8.12,18.75-12.18,29.39-12.18c10.64,0,21.27,4.06,29.39,12.18l92.65,92.65v-227.58
		c0-22.95,18.61-41.57,41.57-41.57c22.96,0,41.57,18.61,41.57,41.57v227.57l92.65-92.64c16.23-16.23,42.55-16.23,58.78,0
		C1484.85,1289.36,1484.85,1315.68,1468.62,1331.91z"/>
	<path class="st0" d="M1536.68,0h-522.13c-75.61,0-136.91,61.3-136.91,136.91v522.14c0,75.61,61.3,136.9,136.91,136.9h522.13
		c75.62,0,136.91-61.29,136.91-136.9V136.91C1673.59,61.3,1612.3,0,1536.68,0z M1468.62,427c-8.12,8.12-18.76,12.18-29.4,12.18
		c-10.64,0-21.27-4.06-29.39-12.18l-92.65-92.65v227.58c0,22.95-18.61,41.57-41.57,41.57c-22.95,0-41.57-18.61-41.57-41.57V334.36
		L1141.4,427c-16.23,16.23-42.54,16.23-58.77,0c-16.24-16.23-16.24-42.54,0-58.77l163.47-163.48c7.53-7.6,17.98-12.3,29.52-12.3
		c8.49,0,16.39,2.55,22.96,6.92c0.03,0.02,0.07,0.04,0.11,0.07c0.46,0.31,0.91,0.63,1.37,0.97c0.1,0.07,0.21,0.15,0.31,0.22
		c0.38,0.29,0.76,0.58,1.13,0.88c0.17,0.14,0.33,0.25,0.49,0.38c0.31,0.26,0.61,0.53,0.91,0.79c0.22,0.19,0.43,0.36,0.63,0.55
		c0.24,0.22,0.47,0.45,0.71,0.68c0.25,0.24,0.51,0.47,0.75,0.71l163.61,163.61C1484.85,384.46,1484.85,410.77,1468.62,427z"/>
	<path class="st0" d="M2414.34,904.19H1892.2c-75.61,0-136.9,61.3-136.9,136.91v522.13c0,75.62,61.29,136.91,136.9,136.91h522.14
		c75.61,0,136.9-61.29,136.9-136.91v-522.13C2551.24,965.49,2489.95,904.19,2414.34,904.19z M2351.88,1325.12
		c-0.02,0.04-0.05,0.07-0.07,0.11c-0.31,0.47-0.63,0.91-0.97,1.37c-0.07,0.1-0.15,0.21-0.22,0.31c-0.29,0.38-0.58,0.76-0.88,1.13
		c-0.14,0.17-0.25,0.33-0.38,0.49c-0.26,0.31-0.53,0.61-0.79,0.92c-0.19,0.21-0.36,0.42-0.55,0.62c-0.22,0.24-0.45,0.47-0.68,0.71
		c-0.24,0.25-0.47,0.51-0.71,0.75l-163.61,163.61c-16.23,16.23-42.54,16.23-58.77,0c-8.12-8.12-12.18-18.76-12.18-29.4
		c0-10.63,4.06-21.27,12.18-29.39l92.65-92.65h-227.58c-22.95,0-41.57-18.61-41.57-41.57s18.61-41.57,41.57-41.57h227.57
		l-92.64-92.65c-16.24-16.23-16.24-42.54,0-58.77c16.23-16.24,42.54-16.24,58.77,0l163.48,163.47c7.6,7.53,12.3,17.98,12.3,29.52
		C2358.8,1310.65,2356.25,1318.54,2351.88,1325.12z"/>
</g>
</svg>
