<svg viewBox="0 0 325.33 319.36" xmlns="http://www.w3.org/2000/svg"><g fill="#fff" transform="translate(753 -547.92)"><path d="m-478.69 683.05c-10.46-.49-20-6.78-26.05-18.59-8.79-17.25-21.4-31.08-38.42-40.24-32.74-17.62-65.39-16.82-97.52 2a28.47 28.47 0 0 0 -3.71 2.52c-3.14 2.58-3.09 5.8.31 8 3.13 2 6.49 3.7 9.73 5.56 7.13 4.09 10 9.81 8.86 17.34-1.07 6.78-5.88 11.54-13.67 12.94q-47.64 8.55-95.33 16.87a15.58 15.58 0 0 1 -18.33-17.88c1.93-13.69 4.6-27.27 7-40.89 3.15-17.91 6.37-35.82 9.49-53.73 1.52-8.7 6-13.66 13.86-15 6.89-1.17 12.88 2.18 17 9.51 1.66 2.93 3.26 5.89 5 8.8 3 5.25 6.47 6 11.32 2.25a170.16 170.16 0 0 1 36.51-21.75c62.6-27.14 137.48-10.16 182.2 41.32a157 157 0 0 1 23.43 35c10.36 21.67-5.06 46.2-31.68 45.97z"/><path d="m-705.14 732c13.72.64 23.23 7 29.26 18.79 9 17.59 21.92 31.6 39.44 40.74 33.39 17.43 66.34 16 98.4-3.81 5.61-3.46 5.47-7.05-.17-10.3-2.91-1.68-5.92-3.2-8.82-4.9-6.49-3.79-9.3-9.76-8.13-17 1.07-6.53 5.86-11.47 13-12.74q44.34-7.95 88.71-15.7c2.21-.39 4.41-.83 6.62-1.22 11.09-2 20.51 6.33 19 17.49-1.64 12.46-4.14 24.81-6.31 37.21-3.38 19.26-6.85 38.51-10.19 57.78-1.9 11-10.29 17.08-20.22 14.56a15.13 15.13 0 0 1 -9.57-7.26c-1.85-3.1-3.56-6.29-5.33-9.44-3.81-6.83-6.89-7.53-13-2.77-16.62 13-34.95 22.72-55.34 28-54.12 14-103 3.13-146.15-32.39a151 151 0 0 1 -39.41-50.28c-9.62-19.43.9-41.42 21.91-46a56 56 0 0 1 6.3-.76z"/></g></svg>